<svg width="40" height="40" viewBox="0 0 40 40" fill="none" xmlns="http://www.w3.org/2000/svg">
<circle cx="20" cy="20" r="20" fill="#E9EEF1"/>
<path d="M10.9567 26H8.91672L9.95672 12.52H12.3967L14.1967 17.44C14.5167 18.28 14.8367 19.1733 15.1567 20.12C15.4767 21.0533 15.7167 21.78 15.8767 22.3L16.1367 23.08C16.7501 21.2667 17.4234 19.3867 18.1567 17.44L20.0367 12.52H22.4767L23.7167 26H21.6767L21.1967 20.72L20.7767 15.32C20.1767 17.0133 19.5234 18.8133 18.8167 20.72L16.9367 25.74H15.3167L13.4967 20.72L11.6767 15.4C11.6767 15.9867 11.5701 17.76 11.3567 20.72L10.9567 26ZM30.94 22.36C30.94 23.6 30.6333 24.52 30.02 25.12C29.42 25.7067 28.6067 26 27.58 26C26.7533 26 26.0933 25.86 25.6 25.58V23.68C26.1467 24.0133 26.6933 24.18 27.24 24.18C28.3333 24.18 28.88 23.6 28.88 22.44V12.52H30.94V22.36Z" fill="#363C41"/>
</svg>
